<svg xmlns="http://www.w3.org/2000/svg" width="256" height="256">
  <!--
    Sci-Fi Terminal surface texture. Tiles seamlessly at 256px.
    Sits under the theme's colour overlay on a near-black background (#050505).
    Uses dark desaturated forest green (#1a5c35) so the grid reads as a
    structural whisper rather than a glowing UI element.
    Layers: fine grid + sub-grid + scanlines + circuit traces with nodes +
    crosshair markers. All purple accents and glitch bars removed.
  -->

  <!-- Main grid at 64px. -->
  <g stroke="#1a5c35" stroke-width="0.8" opacity="0.40">
    <path d="M0 0V256 M64 0V256 M128 0V256 M192 0V256"/>
    <path d="M0 0H256 M0 64H256 M0 128H256 M0 192H256"/>
  </g>

  <!-- Sub-grid at 32px, dashed, fainter. -->
  <g stroke="#1a5c35" stroke-width="0.5" stroke-dasharray="2,4" opacity="0.18">
    <path d="M32 0V256 M96 0V256 M160 0V256 M224 0V256"/>
    <path d="M0 32H256 M0 96H256 M0 160H256 M0 224H256"/>
  </g>

  <!-- Scanlines: 1px every 4px. -->
  <g fill="#000000" opacity="0.08">
    <rect width="256" height="1" y="0"/><rect width="256" height="1" y="4"/>
    <rect width="256" height="1" y="8"/><rect width="256" height="1" y="12"/>
    <rect width="256" height="1" y="16"/><rect width="256" height="1" y="20"/>
    <rect width="256" height="1" y="24"/><rect width="256" height="1" y="28"/>
    <rect width="256" height="1" y="32"/><rect width="256" height="1" y="36"/>
    <rect width="256" height="1" y="40"/><rect width="256" height="1" y="44"/>
    <rect width="256" height="1" y="48"/><rect width="256" height="1" y="52"/>
    <rect width="256" height="1" y="56"/><rect width="256" height="1" y="60"/>
    <rect width="256" height="1" y="64"/><rect width="256" height="1" y="68"/>
    <rect width="256" height="1" y="72"/><rect width="256" height="1" y="76"/>
    <rect width="256" height="1" y="80"/><rect width="256" height="1" y="84"/>
    <rect width="256" height="1" y="88"/><rect width="256" height="1" y="92"/>
    <rect width="256" height="1" y="96"/><rect width="256" height="1" y="100"/>
    <rect width="256" height="1" y="104"/><rect width="256" height="1" y="108"/>
    <rect width="256" height="1" y="112"/><rect width="256" height="1" y="116"/>
    <rect width="256" height="1" y="120"/><rect width="256" height="1" y="124"/>
    <rect width="256" height="1" y="128"/><rect width="256" height="1" y="132"/>
    <rect width="256" height="1" y="136"/><rect width="256" height="1" y="140"/>
    <rect width="256" height="1" y="144"/><rect width="256" height="1" y="148"/>
    <rect width="256" height="1" y="152"/><rect width="256" height="1" y="156"/>
    <rect width="256" height="1" y="160"/><rect width="256" height="1" y="164"/>
    <rect width="256" height="1" y="168"/><rect width="256" height="1" y="172"/>
    <rect width="256" height="1" y="176"/><rect width="256" height="1" y="180"/>
    <rect width="256" height="1" y="184"/><rect width="256" height="1" y="188"/>
    <rect width="256" height="1" y="192"/><rect width="256" height="1" y="196"/>
    <rect width="256" height="1" y="200"/><rect width="256" height="1" y="204"/>
    <rect width="256" height="1" y="208"/><rect width="256" height="1" y="212"/>
    <rect width="256" height="1" y="216"/><rect width="256" height="1" y="220"/>
    <rect width="256" height="1" y="224"/><rect width="256" height="1" y="228"/>
    <rect width="256" height="1" y="232"/><rect width="256" height="1" y="236"/>
    <rect width="256" height="1" y="240"/><rect width="256" height="1" y="244"/>
    <rect width="256" height="1" y="248"/><rect width="256" height="1" y="252"/>
  </g>

  <!-- Circuit traces: angular right-angle runs. -->
  <g fill="none" stroke="#1a5c35" stroke-width="1.4" opacity="0.55">
    <path d="M20 56 H64 V88 H104"/>
    <path d="M192 24 V64 H152 V96"/>
    <path d="M24 184 H72 V216"/>
    <path d="M168 152 H220 V200"/>
  </g>

  <!-- Terminal nodes at trace endpoints and junctions. -->
  <g fill="#1a5c35" opacity="0.65">
    <circle cx="20" cy="56" r="3"/>
    <circle cx="104" cy="88" r="3"/>
    <circle cx="192" cy="24" r="3"/>
    <circle cx="152" cy="96" r="3"/>
    <circle cx="24" cy="184" r="3"/>
    <circle cx="168" cy="152" r="3"/>
    <circle cx="220" cy="200" r="3"/>
  </g>

  <!-- Crosshair at tile centre (128,128) — very faint. -->
  <g stroke="#1a5c35" stroke-width="0.8" opacity="0.22">
    <path d="M120 128 H112 M136 128 H144 M128 120 V112 M128 136 V144"/>
    <rect x="124" y="124" width="8" height="8" fill="none" stroke-dasharray="2,2"/>
  </g>
</svg>
